<?xml version="1.0"?>
<svg width="96" height="96" xmlns="http://www.w3.org/2000/svg" xmlns:svg="http://www.w3.org/2000/svg" xmlns:xlink="http://www.w3.org/1999/xlink" preserveAspectRatio="xMidYMid meet">
 <defs>
  <symbol id="svg_2" preserveAspectRatio="xMidYMid meet" viewBox="0 0 900.000000 900.000000" xmlns="http://www.w3.org/2000/svg">
   <metadata>Created by potrace 1.10, written by Peter Selinger 2001-2011</metadata>
   <g fill="#01749f" transform="translate(0.000000,900.000000) scale(0.100000,-0.100000)" id="svg_1">
    <path d="m385,8863c-91,-9 -201,-93 -247,-190l-23,-48l0,-4135l0,-4135l23,-48c29,-63 106,-140 169,-169l48,-23l4135,0l4135,0l48,23c63,29 140,106 169,169l23,48l0,4135l0,4135l-23,48c-28,59 -103,137 -163,169l-44,23l-4105,1c-2258,0 -4123,-1 -4145,-3zm5230,-214c10,-10 18,-55 25,-139c6,-69 13,-133 16,-142c3,-10 23,-22 47,-29c23,-6 80,-29 126,-50l83,-40l34,26c19,14 53,42 77,63c91,78 112,92 133,92c23,0 168,-134 218,-202c33,-44 30,-68 -11,-113c-74,-80 -133,-159 -133,-179c0,-12 7,-32 16,-45c9,-12 29,-59 45,-104c16,-44 33,-85 38,-90c5,-5 62,-13 127,-18c147,-12 160,-14 169,-36c22,-56 16,-316 -8,-346c-9,-11 -49,-18 -141,-26c-71,-6 -135,-16 -142,-22c-7,-6 -20,-32 -30,-57c-9,-26 -32,-79 -51,-119c-37,-77 -36,-90 9,-137c57,-59 128,-156 128,-173c0,-48 -203,-253 -250,-253c-11,0 -61,35 -112,78c-51,42 -100,82 -109,89c-12,10 -23,8 -56,-8c-23,-11 -76,-33 -119,-48c-91,-32 -89,-27 -105,-201c-7,-87 -14,-118 -26,-127c-18,-14 -296,-19 -340,-7c-28,8 -30,14 -43,162c-5,68 -14,132 -20,142c-5,10 -25,21 -44,24c-19,4 -48,13 -63,21c-15,8 -31,15 -36,15c-4,0 -25,11 -47,25c-22,14 -45,25 -52,25c-7,0 -31,-17 -53,-38c-72,-67 -172,-142 -191,-142c-39,0 -244,215 -244,256c0,13 37,65 90,128c50,59 90,110 90,113c0,3 -14,35 -31,72c-40,84 -46,100 -53,132c-5,24 -10,26 -103,37c-54,7 -120,14 -147,16c-73,6 -76,13 -76,197c0,205 -8,195 168,207c74,6 137,14 142,18c5,5 20,42 34,83c14,41 35,89 46,108c11,19 20,41 20,49c0,8 -41,64 -91,124c-74,91 -89,114 -83,132c10,32 209,226 239,234c25,6 70,-23 160,-102c17,-14 45,-38 63,-51l32,-25l79,40c44,22 94,43 110,47c17,4 36,15 41,26c6,10 15,72 21,137c5,64 14,127 19,139c11,27 43,32 218,29c100,-2 136,-6 147,-17zm-2232,-995c71,-18 154,-70 192,-120c52,-68 75,-137 75,-227c0,-129 -53,-235 -150,-298c-27,-18 -50,-37 -51,-43c0,-6 0,-66 1,-133c1,-71 -4,-131 -10,-143c-10,-18 -20,-20 -140,-20c-70,0 -135,3 -144,6c-14,5 -16,28 -16,149l0,144l-58,44c-72,56 -108,106 -132,188c-24,76 -25,120 -6,192c19,71 35,102 86,160c47,53 78,72 160,98c70,22 117,23 193,3zm3501,-561c9,-21 21,-46 26,-55c6,-10 10,-23 10,-30c0,-7 6,-25 14,-40c8,-15 17,-42 21,-60c4,-18 11,-37 15,-43c5,-5 12,-25 17,-44c5,-19 15,-38 23,-42c8,-4 62,-13 120,-20c98,-11 147,-19 212,-35c24,-5 31,0 72,57c158,222 180,249 197,249c25,0 149,-51 149,-62c0,-4 5,-8 11,-8c14,0 120,-63 182,-109c55,-41 64,-61 43,-98c-8,-16 -25,-50 -37,-78c-12,-27 -39,-87 -60,-131c-22,-45 -39,-90 -39,-100c0,-11 26,-47 58,-81c31,-33 79,-93 105,-133c46,-67 51,-71 79,-65c32,8 78,15 236,39c117,18 137,12 148,-39c3,-16 10,-34 14,-40c24,-33 60,-198 67,-306l5,-66l-89,-33c-48,-18 -107,-41 -130,-51c-23,-11 -46,-19 -51,-19c-4,0 -27,-9 -50,-20l-42,-20l0,-70c0,-68 -3,-85 -33,-218l-14,-64l47,-36c26,-21 57,-44 69,-52c63,-42 178,-129 189,-143c9,-11 10,-21 3,-34c-5,-10 -18,-36 -29,-58c-42,-86 -86,-162 -137,-234c-64,-92 -69,-93 -205,-28c-159,74 -210,97 -220,97c-5,0 -42,-28 -82,-63c-40,-35 -101,-81 -136,-101c-57,-34 -63,-41 -58,-65c6,-28 22,-122 36,-216c5,-33 10,-81 10,-108c0,-43 -3,-49 -27,-58c-16,-6 -36,-15 -45,-20c-10,-5 -34,-13 -55,-18c-21,-6 -83,-21 -138,-35c-111,-29 -164,-32 -187,-13c-8,6 -29,48 -45,92c-17,44 -46,121 -65,170l-34,90l-99,6c-89,6 -178,23 -226,43c-18,8 -39,-10 -67,-53c-9,-14 -20,-30 -25,-36c-7,-9 -63,-89 -130,-185c-16,-22 -36,-40 -45,-40c-20,0 -165,71 -232,114c-166,105 -177,119 -146,189c8,18 24,55 37,82c12,28 39,87 60,131c22,45 39,84 39,87c0,3 -17,23 -38,44c-48,48 -91,105 -126,165c-15,25 -33,49 -42,52c-8,3 -38,1 -67,-5c-28,-6 -97,-17 -152,-26c-55,-8 -114,-17 -131,-20c-39,-6 -50,10 -92,140c-33,99 -49,162 -62,251c-6,44 -4,53 16,73c13,13 30,23 37,23c8,0 28,7 43,15c16,8 36,15 45,15c9,0 18,3 22,6c3,3 43,19 88,35c98,34 109,42 109,83c0,47 29,231 41,263c13,35 7,48 -38,76c-21,14 -48,33 -60,43c-13,11 -63,48 -113,84c-49,36 -92,73 -95,82c-8,23 101,230 170,323c56,76 74,87 113,65c9,-5 42,-20 72,-34c30,-13 95,-43 143,-66c49,-22 92,-40 97,-38c5,2 28,21 52,44c45,42 142,114 155,114c5,1 19,10 32,21c27,22 26,40 -4,234c-32,197 -33,177 18,203c24,12 51,22 59,22c8,0 18,4 24,10c5,5 30,14 54,19c25,6 79,19 120,29c41,11 94,20 116,21c39,1 43,-2 58,-36zm-3284,-547c108,-17 123,-20 250,-56c243,-69 448,-174 675,-343c93,-70 316,-292 365,-363c142,-207 226,-355 280,-499c12,-33 26,-69 31,-80c5,-11 13,-38 18,-60c6,-22 21,-85 34,-140c44,-180 47,-228 47,-648c0,-221 4,-407 8,-413c4,-6 18,-15 32,-19c111,-34 226,-112 305,-208c45,-54 115,-184 115,-212c0,-9 5,-25 10,-35c6,-12 11,-299 11,-797c1,-428 5,-788 10,-800c5,-12 26,-34 48,-47c48,-31 111,-114 134,-176c21,-57 22,-180 2,-238c-32,-91 -94,-160 -184,-204c-61,-30 -74,-33 -161,-33c-107,1 -160,19 -237,82c-102,82 -145,240 -106,384c17,62 79,146 133,181l50,33l0,453c0,248 -2,452 -5,452c-2,0 -29,-11 -59,-25c-30,-14 -62,-25 -70,-25c-31,0 -36,-38 -36,-272c0,-322 -19,-415 -133,-637c-136,-266 -392,-483 -672,-570c-38,-12 -84,-27 -102,-32c-17,-5 -69,-14 -115,-19c-93,-11 -1820,-14 -1938,-4c-169,15 -344,76 -520,182c-104,63 -259,217 -339,336c-35,53 -110,199 -128,251c-54,150 -65,231 -70,500c-2,121 -5,230 -8,241c-3,14 -15,24 -34,27c-16,4 -52,17 -80,31l-51,24l0,-453l0,-452l38,-25c57,-39 95,-82 132,-152c30,-59 33,-71 33,-158c0,-84 -3,-99 -31,-153c-39,-77 -101,-140 -171,-173c-48,-22 -70,-26 -156,-26c-90,-1 -105,2 -157,27c-108,54 -166,130 -193,251c-19,86 -13,147 25,231c21,49 89,126 135,155l35,22l0,763c0,841 0,836 62,965c38,78 92,153 144,199c39,34 138,101 149,101c3,0 25,8 48,19c23,10 50,21 59,24c15,5 17,42 21,404c4,392 12,510 43,648c18,82 43,174 54,195c4,9 11,30 14,48c4,17 12,34 17,37c5,4 9,13 9,22c0,22 120,262 172,343c192,304 470,556 792,720c160,81 257,116 461,169c35,9 190,33 295,45c73,9 359,-3 460,-18zm519,-5485c22,-14 8,-92 -32,-173c-49,-99 -143,-197 -254,-265c-118,-73 -247,-114 -428,-137c-112,-14 -128,-14 -245,3c-177,27 -199,33 -325,92c-190,88 -320,227 -370,394c-18,62 -18,60 1,79c14,14 102,16 827,16c451,0 818,-4 826,-9z" id="svg_3"/>
    <path d="m5300,7883c-129,-45 -234,-157 -274,-296c-40,-137 5,-308 109,-409c107,-107 275,-152 412,-112c186,54 313,221 313,412c0,184 -124,355 -296,407c-64,19 -205,18 -264,-2zm301,-59c29,-16 76,-52 104,-80c187,-186 131,-493 -112,-615c-63,-31 -75,-34 -158,-34c-76,1 -99,5 -148,27c-76,36 -168,124 -203,196c-25,50 -28,68 -28,157c-1,94 1,104 33,168c36,72 92,129 169,174c61,36 94,43 198,39c78,-3 99,-7 145,-32z" id="svg_4"/>
    <path d="m5362,7735c-146,-47 -219,-181 -182,-336c11,-44 24,-64 70,-110c49,-49 64,-58 114,-69c115,-24 206,6 277,90c73,88 77,229 8,325c-36,50 -70,73 -143,98c-58,20 -85,20 -144,2z" id="svg_6"/>
    <path d="m6915,6139c-27,-6 -64,-16 -82,-24c-17,-8 -34,-15 -37,-15c-15,0 -119,-73 -151,-105c-38,-37 -93,-120 -118,-175c-37,-83 -49,-145 -44,-231c10,-201 87,-344 242,-446c72,-47 126,-69 225,-87c63,-12 85,-12 151,-1c188,33 302,103 391,240c68,105 90,179 90,300c-1,364 -304,611 -667,544zm267,-66c6,-7 18,-13 26,-13c8,0 41,-16 75,-37c137,-83 208,-198 237,-383c22,-137 -35,-286 -151,-396c-59,-56 -111,-87 -191,-114c-58,-19 -81,-22 -175,-18c-114,5 -164,20 -248,76c-129,85 -225,259 -225,409c0,97 49,226 118,313c43,54 51,61 120,106c89,59 149,74 284,71c77,-1 121,-6 130,-14z" id="svg_8"/>
    <path d="m6925,5933c-89,-27 -150,-79 -203,-173c-36,-62 -37,-69 -37,-160c1,-110 19,-161 82,-231c71,-79 158,-119 259,-119c143,0 259,75 322,209c22,48 26,69 26,146c-1,77 -5,97 -26,140c-82,159 -259,238 -423,188z" id="svg_9"/>
    <path d="m3150,5916c-3,-3 -48,-10 -100,-16c-184,-23 -365,-76 -513,-151c-250,-127 -428,-316 -522,-554c-64,-161 -69,-193 -70,-420c0,-195 2,-215 23,-278c73,-209 225,-312 501,-336c114,-10 1673,-7 1716,3c130,32 167,43 215,69c104,54 170,134 218,262c16,42 42,215 41,272c-1,84 -44,331 -68,388c-29,71 -89,188 -118,232c-54,82 -156,186 -251,256c-82,61 -282,167 -314,167c-8,0 -18,4 -24,9c-5,4 -29,14 -54,20c-25,7 -70,19 -100,27c-97,25 -271,46 -425,51c-82,3 -152,2 -155,-1zm-644,-811c117,-49 184,-148 184,-273c0,-84 -22,-142 -76,-202c-53,-58 -104,-81 -194,-87c-90,-6 -146,12 -215,71c-68,56 -90,111 -90,221c0,101 17,145 77,202c62,60 114,81 201,82c47,1 91,-5 113,-14zm1810,-11c37,-17 68,-42 94,-76c121,-153 77,-364 -95,-449c-60,-29 -70,-31 -142,-26c-123,8 -201,59 -249,163c-49,104 -38,210 30,303c78,106 238,144 362,85z" id="svg_10"/>
    <path d="m3665,3431c-27,-12 -71,-61 -80,-89c-10,-33 12,-88 46,-117c65,-54 179,-14 195,70c16,85 -85,169 -161,136z" id="svg_11"/>
    <path d="m4075,3431c-52,-23 -92,-91 -81,-136c4,-14 19,-39 35,-57c23,-26 37,-32 82,-35c46,-4 58,-1 80,19c60,53 66,116 17,171c-35,39 -93,56 -133,38z" id="svg_12"/>
    <path d="m4493,3433c-13,-2 -36,-21 -53,-41c-42,-51 -42,-108 1,-151c35,-36 66,-46 116,-38c44,7 65,26 88,76c16,37 16,41 0,78c-27,62 -85,91 -152,76z" id="svg_13"/>
   </g>
  </symbol>
  <pattern id="gridpattern" patternUnits="userSpaceOnUse" x="0" y="0" width="100" height="100">
   <image id="svg_5" x="0" y="0" width="100" height="100"/>
  </pattern>
 </defs>
 <g>
  <title>Layer 2</title>
  <use x="0" y="0" transform="matrix(0.995795, 0, 0, 0.995795, -0.102632, -0.302941)" xlink:href="#svg_2" id="svg_7"/>
 </g>
</svg>